<svg fill="#000000" xmlns="http://www.w3.org/2000/svg" xmlns:xlink="http://www.w3.org/1999/xlink" version="1.0" x="0px" y="0px" viewBox="0 0 200 200" height="120" width="120">
  <g id="card2_1" transform="translate(50, 50)">
    <path fill="#EBBA65" d="M47.707,18.602l-6.255,-6.254l0,-4.587l8.548,8.548l8.548,-8.548l0,4.587l-6.255,6.254l29.605,29.605l6.254,-6.255l4.587,0l-8.548,8.548l8.548,8.548l-4.587,0l-6.254,-6.255l-23.35,23.35l-6.255,6.255l6.255,6.254l0,4.587l-8.548,-8.548l-8.548,8.548l0,-4.587l6.255,-6.254l-23.35,-23.35l-6.255,-6.255l-6.254,6.255l-4.587,0l8.548,-8.548l-8.548,-8.548l4.587,0l6.254,6.255l23.35,-23.35l6.255,-6.255Zm-1.668,52.955l-2.293,2.293l6.254,6.255l6.254,-6.255l-6.254,-6.254l-3.961,3.961Zm1.668,-6.255l-12.509,-12.509l-6.255,6.255l12.509,12.509l6.255,-6.255Zm23.35,-6.254l-6.255,-6.255l-12.509,12.509l6.255,6.255l12.509,-12.509Zm-3.961,-8.548l6.254,6.254l6.255,-6.254l-6.255,-6.254l-6.254,6.254Zm-46.701,0l6.255,6.254l6.254,-6.254l-6.254,-6.254l-6.255,6.254Zm31.898,-14.802l12.509,12.509l6.255,-6.255l-12.509,-12.509l-6.255,6.255Zm-23.35,6.254l6.255,6.255l12.509,-12.509l-6.255,-6.255l-12.509,12.509Zm14.803,-14.802l6.254,6.254l6.254,-6.254l-6.254,-6.255l-6.254,6.255Z"/>
    <g/>
    <g/>
  </g>
  <circle cx="100" cy="100" r="70" stroke="#EBBA65" stroke-width="3" fill="red" fill-opacity="0"/>
</svg>
