<svg fill="#000000" xmlns="http://www.w3.org/2000/svg" xmlns:xlink="http://www.w3.org/1999/xlink" version="1.0" x="0px" y="0px" viewBox="0 0 200 200" height="120" width="120">
  <g id="card2_1" transform="translate(50, 50)">
    <g>
      <g>
        <g>
          <polygon fill="none" points="49.984,61.452 52.252,60.048 50,58.756 47.732,60.058   "/>
          <path fill="none" d="M41.121,55.965l5.663,3.506l2.231-1.281l-7.298-4.189C41.538,54.613,41.339,55.269,41.121,55.965z"/>
          <path fill="none" d="M45.817,60.026l-5.002-3.096c-0.731,2.289-1.604,4.878-2.455,7.376L45.817,60.026z"/>
          <path fill="none" d="M53.199,59.462l5.279-3.268c-0.218-0.692-0.418-1.347-0.599-1.96l-6.895,3.957L53.199,59.462z"/>
          <path fill="none" d="M61.051,63.969c-0.787-2.311-1.585-4.682-2.267-6.811l-4.618,2.859L61.051,63.969z"/>
          <path fill="none" d="M41.522,50.747l-0.797-0.128c-0.947,2.439-6.237,16.074-7.519,19.522c-1.259,3.391-7.014,20.364-8.208,23.887    h0.562c1.032-2.386,7.933-18.393,9.537-23.226c0.388-1.169,0.91-2.696,1.491-4.395C38.493,60.841,41.057,53.348,41.522,50.747z"/>
          <path fill="none" d="M42.546,50.643c-0.081,0.562-0.271,1.375-0.551,2.387L50,57.626l7.599-4.361    c-0.31-1.103-0.526-1.996-0.615-2.599c-2.054,0.092-4.363,0.144-6.984,0.144C47.176,50.809,44.715,50.749,42.546,50.643z"/>
          <path fill="none" d="M79.488,23.426c-0.17,0.617-0.304,3.166-0.445,5.864c-0.282,5.38-0.505,8.97-1.024,9.826    c-0.907,1.493-3.414,4.994-7.1,5.26c-3.559,0.257-16.772,0.817-20.863,0.817h-0.168c-4.091,0-17.306-0.56-20.863-0.817    c-3.688-0.266-6.193-3.767-7.099-5.26c-0.52-0.856-0.743-4.447-1.025-9.828c-0.142-2.697-0.275-5.245-0.446-5.863    c-0.234-0.846-1.303-1.681-2.145-2.21l1.489,17.504c0.005,0.045,0.591,5.293,4.739,7.01c0.438,0.181,0.866,0.367,1.298,0.554    c3.022,1.311,6.123,2.656,14.243,3.245l0.001-0.001l0.016,0.003c2.691,0.195,5.932,0.306,9.904,0.306    c3.583,0,6.568-0.091,9.094-0.252l0.352-0.057l0.013,0.033c8.462-0.571,11.627-1.94,14.705-3.276    c0.432-0.187,0.859-0.373,1.298-0.554c4.16-1.721,4.733-6.964,4.738-7.017l1.493-17.535    C80.843,21.705,79.728,22.563,79.488,23.426z"/>
          <path fill="none" d="M37.881,65.711c-0.115,0.337-0.23,0.672-0.343,1.002c-0.387,1.131-0.744,2.174-1.056,3.098l12.57-7.782    l-2.288-1.416L37.881,65.711z"/>
          <path fill="none" d="M58.005,50.747c0.466,2.603,3.032,10.105,4.938,15.676c0.579,1.692,1.1,3.213,1.486,4.378    c1.604,4.833,8.505,20.839,9.537,23.226h0.562c-1.193-3.523-6.948-20.495-8.208-23.887c-1.28-3.448-6.572-17.083-7.519-19.522    L58.005,50.747z"/>
          <path fill="none" d="M61.531,65.374l-8.312-4.771l-2.303,1.426l12.012,7.436c-0.283-0.833-0.596-1.749-0.933-2.736    C61.842,66.285,61.687,65.832,61.531,65.374z"/>
          <path fill="#EBBA65" d="M82.249,19.839c-0.062,0-5.856,0.187-9.72-1.799c-3.924-2.016-11.13-8.795-11.265-8.914    C61.095,9.012,56.907,6.314,50,6.204v0.97c6.554,0.104,10.619,2.703,10.632,2.703c0,0,0,0,0,0    c0.299,0.283,7.381,6.945,11.431,9.026c2.768,1.422,6.337,1.799,8.446,1.891c-0.818,0.591-1.72,1.427-1.985,2.38    c-0.189,0.683-0.305,2.75-0.479,6.068c-0.182,3.451-0.455,8.666-0.888,9.38c-0.826,1.361-3.097,4.552-6.312,4.785    c-3.546,0.255-16.714,0.814-20.789,0.814h-0.168c-4.076,0-17.243-0.559-20.789-0.814c-3.218-0.232-5.486-3.424-6.312-4.785    c-0.434-0.714-0.707-5.93-0.888-9.382c-0.174-3.316-0.29-5.384-0.479-6.066c-0.264-0.952-1.164-1.787-1.982-2.378    c2.101-0.088,5.707-0.459,8.498-1.893c4.05-2.081,11.131-8.743,11.367-8.975C39.344,9.9,43.416,7.278,50,7.173v-0.97    c-6.907,0.11-11.095,2.808-11.328,2.974c-0.072,0.068-7.277,6.847-11.201,8.863c-3.866,1.987-9.66,1.798-9.719,1.799l-0.563-0.02    l1.616,18.989c0.024,0.239,0.644,5.873,5.344,7.817c0.433,0.179,0.856,0.363,1.282,0.548c2.926,1.269,6.147,2.664,14.285,3.294    c-1.115,2.873-6.194,15.967-7.448,19.342c-1.405,3.782-8.363,24.345-8.434,24.552L23.617,95h2.608l0.129-0.298    c0.079-0.181,7.797-17.993,9.638-23.435l13.992-8.662l13.434,8.317c0.019,0.056,0.041,0.122,0.059,0.176    c1.739,5.242,9.616,23.421,9.695,23.603L73.302,95h2.609l-0.217-0.639c-0.07-0.207-7.029-20.77-8.434-24.552    c-1.249-3.362-6.294-16.368-7.436-19.308c8.478-0.612,11.766-2.035,14.746-3.328c0.426-0.185,0.849-0.368,1.281-0.548    c4.701-1.944,5.319-7.579,5.344-7.825l1.616-18.982L82.249,19.839z M58.478,56.194l-5.279,3.268l-2.215-1.271l6.895-3.957    C58.06,54.846,58.261,55.502,58.478,56.194z M61.051,63.969l-6.885-3.952l4.618-2.859C59.467,59.287,60.264,61.658,61.051,63.969z     M52.252,60.048l-2.268,1.404l-2.253-1.394L50,58.756L52.252,60.048z M46.784,59.471l-5.663-3.506    c0.218-0.696,0.417-1.353,0.596-1.964l7.298,4.189L46.784,59.471z M40.816,56.93l5.002,3.096l-7.456,4.28    C39.212,61.808,40.085,59.219,40.816,56.93z M25.561,94.026h-0.562c1.193-3.523,6.948-20.495,8.208-23.887    c1.281-3.448,6.572-17.083,7.519-19.522l0.797,0.128c-0.465,2.601-3.029,10.095-4.933,15.659    c-0.581,1.699-1.104,3.226-1.491,4.395C33.494,75.633,26.593,91.64,25.561,94.026z M36.482,69.811    c0.312-0.923,0.669-1.967,1.056-3.098c0.113-0.329,0.227-0.665,0.343-1.002l8.883-5.099l2.288,1.416L36.482,69.811z     M50.916,62.029l2.303-1.426l8.312,4.771c0.156,0.457,0.311,0.91,0.463,1.355c0.338,0.987,0.651,1.903,0.933,2.736L50.916,62.029z     M74.528,94.026h-0.562c-1.032-2.386-7.933-18.393-9.537-23.226c-0.387-1.166-0.907-2.686-1.486-4.378    c-1.905-5.571-4.472-13.072-4.938-15.676l0.797-0.128c0.946,2.439,6.238,16.074,7.519,19.522    C67.58,73.531,73.335,90.504,74.528,94.026z M57.599,53.264L50,57.626l-8.005-4.595c0.28-1.013,0.471-1.826,0.551-2.387    c2.169,0.106,4.63,0.166,7.454,0.166c2.621,0,4.931-0.051,6.984-0.144C57.073,51.269,57.289,52.162,57.599,53.264z M80.2,38.713    c-0.005,0.053-0.578,5.295-4.738,7.017c-0.438,0.181-0.866,0.367-1.298,0.554c-3.078,1.336-6.243,2.705-14.705,3.276l-0.013-0.033    l-0.352,0.057c-2.526,0.161-5.511,0.252-9.094,0.252c-3.972,0-7.213-0.112-9.904-0.306l-0.016-0.003l-0.001,0.001    c-8.12-0.589-11.22-1.933-14.243-3.245c-0.432-0.187-0.859-0.373-1.298-0.554c-4.148-1.717-4.734-6.965-4.739-7.01L18.31,21.216    c0.842,0.529,1.911,1.364,2.145,2.21c0.17,0.617,0.304,3.165,0.446,5.863c0.282,5.381,0.505,8.972,1.025,9.828    c0.906,1.493,3.411,4.994,7.099,5.26c3.558,0.257,16.772,0.817,20.863,0.817h0.168c4.09,0,17.304-0.56,20.863-0.817    c3.686-0.266,6.192-3.767,7.1-5.26c0.52-0.856,0.742-4.446,1.024-9.826c0.142-2.698,0.275-5.247,0.445-5.864    c0.239-0.863,1.355-1.721,2.205-2.248L80.2,38.713z"/>
        </g>
      </g>
    </g>
  </g>
  <circle cx="100" cy="100" r="70" stroke="#EBBA65" stroke-width="3" fill="red" fill-opacity="0"/>
</svg>
