<svg fill="#000000" xmlns="http://www.w3.org/2000/svg" xmlns:xlink="http://www.w3.org/1999/xlink" version="1.0" x="0px" y="0px" viewBox="0 0 200 200" height="120" width="120">
  <g id="card2_1" transform="translate(50, 50)">
  <g><g><path fill = "#EBBA65" d="M71.4,49.4l-1.1-4.9c-0.1-0.5-0.5-0.8-1-0.8h-1.3v-2.6h10.3c0.6,0,1-0.4,1-1v-4.7c0-0.6-0.4-1-1-1H65.7v-7.7    c0-0.6-0.4-1-1-1s-1,0.4-1,1v7.7H36.4v-7.7c0-0.6-0.4-1-1-1s-1,0.4-1,1v7.7H21.8c-0.6,0-1,0.4-1,1v4.7c0,0.6,0.4,1,1,1h10.2v2.6    h-1.3c-0.5,0-0.9,0.3-1,0.8l-1.1,4.9c-0.1,0.3,0,0.6,0.2,0.9c0.2,0.2,0.5,0.4,0.8,0.4h6.9c0.3,0,0.6-0.1,0.8-0.4    c0.2-0.2,0.3-0.6,0.2-0.9l-1.1-4.9c-0.1-0.5-0.5-0.8-1-0.8h-1.3v-2.6H49v2.6h-1.3c-0.5,0-0.9,0.3-1,0.8l-1.1,4.9    c-0.1,0.3,0,0.6,0.2,0.9c0.2,0.2,0.5,0.4,0.8,0.4h6.9c0.3,0,0.6-0.1,0.8-0.4c0.2-0.2,0.3-0.6,0.2-0.9l-1.1-4.9    c-0.1-0.5-0.5-0.8-1-0.8H51v-2.6h14.9v2.6h-1.3c-0.5,0-0.9,0.3-1,0.8l-1.1,4.9c-0.1,0.3,0,0.6,0.2,0.9c0.2,0.2,0.5,0.4,0.8,0.4    h6.9c0.3,0,0.6-0.1,0.8-0.4C71.4,50,71.5,49.6,71.4,49.4z M35.2,48.6h-4.4l0.7-2.9h3L35.2,48.6z M52.2,48.6h-4.4l0.7-2.9h3    L52.2,48.6z M22.8,36.5h54.4v2.7H22.8V36.5z M64.8,48.6l0.7-2.9h3l0.7,2.9H64.8z"></path><path fill = "#EBBA65" d="M42.1,61.6l4.4-7.6c0.1-0.2,0.1-0.5-0.2-0.7c-0.2-0.1-0.5-0.1-0.7,0.2l-4.1,7.1l-4.1-7.1c-0.1-0.2-0.4-0.3-0.7-0.2    c-0.2,0.1-0.3,0.4-0.2,0.7l4.4,7.6l-6.8,11.8c-0.1,0.2-0.1,0.5,0.2,0.7c0.1,0,0.2,0.1,0.2,0.1c0.2,0,0.3-0.1,0.4-0.3l6.5-11.3    L48.1,74c0.1,0.2,0.3,0.3,0.4,0.3c0.1,0,0.2,0,0.2-0.1c0.2-0.1,0.3-0.4,0.2-0.7L42.1,61.6z"></path><path fill = "#EBBA65" d="M29.3,53.4c-0.2-0.1-0.5-0.1-0.7,0.2L17.2,73.5c-0.1,0.2-0.1,0.5,0.2,0.7c0.1,0,0.2,0.1,0.2,0.1c0.2,0,0.3-0.1,0.4-0.3    l11.5-19.9C29.7,53.8,29.6,53.5,29.3,53.4z"></path><path fill = "#EBBA65" d="M59.1,61.6l4.4-7.6c0.1-0.2,0.1-0.5-0.2-0.7c-0.2-0.1-0.5-0.1-0.7,0.2l-4.1,7.1l-4.1-7.1c-0.1-0.2-0.4-0.3-0.7-0.2    c-0.2,0.1-0.3,0.4-0.2,0.7l4.4,7.6l-6.8,11.8c-0.1,0.2-0.1,0.5,0.2,0.7c0.1,0,0.2,0.1,0.2,0.1c0.2,0,0.3-0.1,0.4-0.3l6.5-11.3    L65,74c0.1,0.2,0.3,0.3,0.4,0.3c0.1,0,0.2,0,0.2-0.1c0.2-0.1,0.3-0.4,0.2-0.7L59.1,61.6z"></path><path fill = "#EBBA65" d="M82.8,73.5L71.3,53.6c-0.1-0.2-0.4-0.3-0.7-0.2c-0.2,0.1-0.3,0.4-0.2,0.7L82,74c0.1,0.2,0.3,0.3,0.4,0.3    c0.1,0,0.2,0,0.2-0.1C82.9,74,83,73.7,82.8,73.5z"></path></g></g>
    <g/>
    <g/>
  </g>
  <circle cx="100" cy="100" r="70" stroke="#EBBA65" stroke-width="3" fill="red" fill-opacity="0"/>
</svg>
