<svg fill="#000000" xmlns="http://www.w3.org/2000/svg" xmlns:xlink="http://www.w3.org/1999/xlink" version="1.0" x="0px" y="0px" viewBox="0 0 200 200" height="120" width="120">
  <g id="card2_1" transform="translate(50, 50)">
    <g>
      <path fill="#EBBA65" d="M34.7,84.1c0-0.1,0-0.2,0-0.3c0,0,0,0,0,0c0-0.1-0.1-0.2-0.1-0.3c0-0.1-0.1-0.2-0.1-0.3c0,0,0,0,0,0c0-0.1-0.1-0.2-0.2-0.3   c0-0.1-0.1-0.2-0.1-0.2c0,0,0,0,0,0c-0.1-0.1-0.1-0.1-0.2-0.2c-0.1-0.1-0.1-0.2-0.2-0.2c0,0,0,0,0,0c0,0,0,0,0,0   c-0.1-0.1-0.2-0.1-0.3-0.2c-0.1-0.1-0.1-0.1-0.2-0.2c0,0,0,0,0,0c-0.1-0.1-0.2-0.1-0.2-0.1c-0.1-0.1-0.2-0.1-0.3-0.2c0,0,0,0,0,0   s0,0,0,0c-0.1,0-0.2-0.1-0.3-0.1c-0.1,0-0.2-0.1-0.3-0.1c0,0,0,0,0,0c-0.1,0-0.2,0-0.3,0c-0.1,0-0.2,0-0.3,0c0,0,0,0,0,0   c0,0,0,0,0,0c-0.1,0-0.2,0-0.3,0c-0.1,0-0.2,0-0.3,0c0,0,0,0,0,0c-0.1,0-0.2,0.1-0.3,0.1c-0.1,0-0.2,0.1-0.3,0.1c0,0,0,0,0,0   c-0.1,0-0.2,0.1-0.3,0.2c-0.1,0-0.2,0.1-0.2,0.1c0,0,0,0,0,0c-0.1,0.1-0.1,0.1-0.2,0.2c-0.1,0.1-0.2,0.1-0.2,0.2c0,0,0,0,0,0   c0,0,0,0,0,0c-0.1,0.1-0.1,0.2-0.2,0.2c-0.1,0.1-0.1,0.1-0.2,0.2c0,0,0,0,0,0c-0.1,0.1-0.1,0.2-0.1,0.2c-0.1,0.1-0.1,0.2-0.2,0.3   c0,0,0,0,0,0s0,0,0,0c0,0.1-0.1,0.2-0.1,0.3c0,0.1-0.1,0.2-0.1,0.3c0,0,0,0,0,0c0,0.1,0,0.2,0,0.3c0,0.1,0,0.2,0,0.3c0,0,0,0,0,0   c0,0,0,0,0,0c0,0.1,0,0.2,0,0.3c0,0.1,0,0.2,0,0.3c0,0,0,0,0,0c0,0.1,0.1,0.2,0.1,0.3c0,0.1,0.1,0.2,0.1,0.3c0,0,0,0,0,0   c0,0.1,0.1,0.2,0.2,0.3c0,0.1,0.1,0.2,0.1,0.2c0,0,0,0,0,0c0.1,0.1,0.1,0.1,0.2,0.2c0.1,0.1,0.1,0.2,0.2,0.2c0,0,0,0,0,0   c0,0,0,0,0,0c0.1,0.1,0.2,0.1,0.3,0.2c0.1,0.1,0.1,0.1,0.2,0.2c0,0,0,0,0,0c0.1,0.1,0.2,0.1,0.2,0.1c0.1,0.1,0.2,0.1,0.3,0.2   c0,0,0,0,0,0s0,0,0,0c0.1,0,0.2,0.1,0.3,0.1c0.1,0,0.2,0.1,0.3,0.1c0,0,0,0,0,0c0.1,0,0.2,0,0.3,0c0.1,0,0.2,0,0.3,0c0,0,0,0,0,0   c0,0,0,0,0,0c0.1,0,0.2,0,0.3,0c0.1,0,0.2,0,0.3,0c0,0,0,0,0,0c0.1,0,0.2-0.1,0.3-0.1c0.1,0,0.2-0.1,0.3-0.1c0,0,0,0,0,0   c0.1,0,0.2-0.1,0.3-0.2c0.1,0,0.2-0.1,0.2-0.1c0,0,0,0,0,0c0.1-0.1,0.1-0.1,0.2-0.2c0.1-0.1,0.2-0.1,0.2-0.2c0,0,0,0,0,0   c0,0,0,0,0,0c0.1-0.1,0.1-0.2,0.2-0.3c0.1-0.1,0.1-0.1,0.2-0.2c0,0,0,0,0,0c0.1-0.1,0.1-0.2,0.1-0.2c0.1-0.1,0.1-0.2,0.2-0.3   c0,0,0,0,0,0c0,0,0,0,0,0c0-0.1,0.1-0.2,0.1-0.3c0-0.1,0.1-0.2,0.1-0.3c0,0,0,0,0,0c0-0.1,0-0.2,0-0.3c0-0.1,0-0.2,0-0.3   c0,0,0,0,0,0c0,0,0,0,0,0C34.7,84.3,34.7,84.2,34.7,84.1z"/>
      <path fill="#EBBA65" d="M61.1,33.7l-14-5.8c-0.1-0.1-0.3,0-0.3,0.1s0,0.3,0.1,0.3l14,5.8c0.1,0.1,0.3,0,0.3-0.1C61.3,33.9,61.2,33.8,61.1,33.7z"/>
      <path fill="#EBBA65" d="M67.6,38.2c-0.1-0.1-0.3-0.1-0.4,0c-0.1,0.1-0.1,0.3,0,0.4l10.7,10.8c0.1,0.1,0.3,0.1,0.4,0s0.1-0.3,0-0.4L67.6,38.2z"/>
      <path fill = "#EBBA65"  d="M94.3,36.8L79.6,22.1c-0.4-0.4-1-0.4-1.4,0L64.1,36l7.6-18.3c0.2-0.5,0-1.1-0.5-1.3l-19.2-8c-0.5-0.2-1.1,0-1.3,0.5   L43,27.3V7.4c0-0.6-0.4-1-1-1H21.2c-0.6,0-1,0.4-1,1v72.2l-1.5,1.5c-0.4,0.4-0.4,1,0,1.4l0.9,0.9l-1.2,2.9c-0.2,0.5,0,1.1,0.5,1.3   l1.2,0.5v3.1c0,0.6,0.4,1,1,1h7.2l5,5.1c0.4,0.4,1,0.4,1.4,0l2.2-2.2l-1-0.4l2.2,0.9c0.5,0.2,1.1,0,1.3-0.5l1.2-2.9H42   c0.6,0,1-0.4,1-1v-2.1l51.2-50.9C94.6,37.9,94.6,37.2,94.3,36.8z M34.1,95.2l-2.1-2.2L30,92.3l5,2.1L34.1,95.2z M38,93.4l-2.8-1.2   h3.3L38,93.4z M41,90.3H22.2V8.4H41V90.3z M43,68.1l3.2,1.3c0.1,0.1,0.3,0,0.3-0.1c0.1-0.1,0-0.3-0.1-0.3L43,67.6V47.4l10.5,4.4   c0.1,0.1,0.3,0,0.3-0.1c0.1-0.1,0-0.3-0.1-0.3L43,46.9V32.5l9.1-21.8l17.4,7.2L43,81.5V68.1z M43.2,86.1l5.1-12.3l2.4,2.5   c0.1,0.1,0.3,0.1,0.4,0c0.1-0.1,0.1-0.3,0-0.4l-2.6-2.6l7.9-19l-0.2,0.4l8,8.1c0.1,0.1,0.3,0.1,0.4,0s0.1-0.3,0-0.4l-8.2-8.2   l6.9-16.5l-1.3,3.2l16.8-16.7l13.3,13.4L43.2,86.1z"/>
      <path fill="#EBBA65" d="M24.2,26.8h15.2c0.1,0,0.2-0.1,0.2-0.2s-0.1-0.2-0.2-0.2H24.2c-0.1,0-0.2,0.1-0.2,0.2S24,26.8,24.2,26.8z"/>
      <path fill="#EBBA65" d="M24.2,45.9h15.2c0.1,0,0.2-0.1,0.2-0.2s-0.1-0.2-0.2-0.2H24.2c-0.1,0-0.2,0.1-0.2,0.2S24,45.9,24.2,45.9z"/>
      <path fill="#EBBA65" d="M24.2,65h15.2c0.1,0,0.2-0.1,0.2-0.2s-0.1-0.2-0.2-0.2H24.2c-0.1,0-0.2,0.1-0.2,0.2S24,65,24.2,65z"/>
    </g>
    <g/>
    <g/>
  </g>
  <circle cx="100" cy="100" r="70" stroke="#EBBA65" stroke-width="3" fill="red" fill-opacity="0"/>
</svg>
